<?xml version="1.0" standalone="no"?>
<!DOCTYPE svg PUBLIC "-//W3C//DTD SVG 20010904//EN"
 "http://www.w3.org/TR/2001/REC-SVG-20010904/DTD/svg10.dtd">
<svg version="1.0" xmlns="http://www.w3.org/2000/svg"
 width="31.000000pt" height="29.000000pt" viewBox="0 0 31.000000 29.000000"
 preserveAspectRatio="xMidYMid meet">

<g transform="translate(0.000000,29.000000) scale(0.100000,-0.100000)"
fill="#000000" stroke="none">
<path d="M0 145 l0 -145 155 0 155 0 0 145 0 145 -155 0 -155 0 0 -145z m170
85 c0 -15 7 -20 26 -20 38 0 64 -18 64 -44 0 -13 8 -27 18 -31 16 -6 16 -7 0
-19 -9 -6 -18 -23 -20 -36 -3 -25 -5 -25 -98 -25 l-95 0 -3 28 c-2 15 -8 27
-13 27 -5 0 -9 7 -9 15 0 8 5 15 10 15 6 0 10 11 10 25 0 27 24 44 67 46 23 2
24 2 6 6 -35 7 -29 33 7 33 23 0 30 -4 30 -20z"/>
<path d="M90 125 l0 -56 73 3 72 3 0 50 0 50 -72 3 -73 3 0 -56z m50 0 c0 -14
-4 -25 -10 -25 -5 0 -10 11 -10 25 0 14 5 25 10 25 6 0 10 -11 10 -25z m68 3
c-2 -13 -7 -23 -13 -23 -5 0 -11 10 -13 23 -2 15 2 22 13 22 11 0 15 -7 13
-22z"/>
</g>
</svg>
